<?xml version="1.0" encoding="utf-8"?>
<!-- Generator: Adobe Illustrator 22.0.1, SVG Export Plug-In . SVG Version: 6.00 Build 0)  -->
<svg version="1.1" id="Calque_1" xmlns="http://www.w3.org/2000/svg" xmlns:xlink="http://www.w3.org/1999/xlink" x="0px" y="0px"
	 viewBox="0 0 841.9 595.3" style="enable-background:new 0 0 841.9 595.3;" xml:space="preserve">
<style type="text/css">
	.st0{fill:url(#SVGID_1_);}
	.st1{fill:url(#SVGID_2_);}
	.st2{fill:url(#SVGID_3_);}
	.st3{fill:url(#SVGID_4_);}
	.st4{fill:url(#SVGID_5_);}
	.st5{fill:url(#SVGID_6_);}
	.st6{fill:url(#SVGID_7_);}
	.st7{fill:url(#SVGID_8_);}
</style>
<g>
	<g>
		<linearGradient id="SVGID_1_" gradientUnits="userSpaceOnUse" x1="249.0371" y1="295.0726" x2="258.7488" y2="242.0744">
			<stop  offset="0" style="stop-color:#221C1B"/>
			<stop  offset="1" style="stop-color:#6D605F"/>
		</linearGradient>
		<polygon class="st0" points="270.1,266.4 249.9,300.8 229.5,266.4 223.7,266.4 223.7,315.4 230.5,315.4 230.5,279.9 248.2,309.4 
			251.4,309.4 269.1,279.7 269.1,315.4 275.9,315.4 275.8,266.4 		"/>
		<linearGradient id="SVGID_2_" gradientUnits="userSpaceOnUse" x1="306.4733" y1="305.5976" x2="316.185" y2="252.5994">
			<stop  offset="0" style="stop-color:#221C1B"/>
			<stop  offset="1" style="stop-color:#6D605F"/>
		</linearGradient>
		<path class="st1" d="M324.7,294c0,10.8-5,15.7-13.9,15.7s-13.8-4.9-13.8-15.7v-27.6h-7v27.8c0,14.2,7.8,21.7,20.7,21.7
			c12.9,0,20.7-7.5,20.7-21.7v-27.8h-6.8V294z"/>
		<linearGradient id="SVGID_3_" gradientUnits="userSpaceOnUse" x1="356.446" y1="314.7549" x2="366.1577" y2="261.7567">
			<stop  offset="0" style="stop-color:#221C1B"/>
			<stop  offset="1" style="stop-color:#6D605F"/>
		</linearGradient>
		<path class="st2" d="M349.4,279.5c0-4.3,3.6-7.8,11.9-7.8c4.3,0,9.2,1.3,13.4,4l2.3-5.6c-4.1-2.8-10-4.3-15.7-4.3
			c-12.9,0-18.7,6.4-18.7,14c0,18.2,29.7,10.6,29.7,22.6c0,4.3-3.6,7.6-12.1,7.6c-6.3,0-12.5-2.4-16.2-5.7l-2.6,5.5
			c3.9,3.6,11.3,6.2,18.7,6.2c12.9,0,19-6.4,19-13.9C379.1,284,349.4,291.5,349.4,279.5z"/>
		<linearGradient id="SVGID_4_" gradientUnits="userSpaceOnUse" x1="387.3585" y1="320.4195" x2="397.0702" y2="267.4213">
			<stop  offset="0" style="stop-color:#221C1B"/>
			<stop  offset="1" style="stop-color:#6D605F"/>
		</linearGradient>
		<rect x="389.3" y="266.4" class="st3" width="7" height="49"/>
		<linearGradient id="SVGID_5_" gradientUnits="userSpaceOnUse" x1="423.9655" y1="327.1276" x2="433.6772" y2="274.1294">
			<stop  offset="0" style="stop-color:#221C1B"/>
			<stop  offset="1" style="stop-color:#6D605F"/>
		</linearGradient>
		<path class="st4" d="M433.2,309.7c-11.1,0-19.2-8-19.2-18.8c0-10.8,8.2-18.8,19.2-18.8c5.4,0,10,1.8,13.8,5.8l4.5-4.4
			c-4.5-5-11.1-7.6-18.6-7.6c-14.9,0-26,10.6-26,25c0,14.5,11.1,25,25.9,25c7.6,0,14.2-2.7,18.7-7.7l-4.5-4.4
			C443.2,307.8,438.6,309.7,433.2,309.7z"/>
	</g>
	<g>
		<linearGradient id="SVGID_6_" gradientUnits="userSpaceOnUse" x1="527.3788" y1="340.4343" x2="536.8131" y2="276.6144">
			<stop  offset="0" style="stop-color:#710914"/>
			<stop  offset="1" style="stop-color:#CD3C30"/>
		</linearGradient>
		<polygon class="st5" points="524.9,266.4 518,266.4 518,315.4 551.5,315.4 551.5,309.3 524.9,309.3 		"/>
		<linearGradient id="SVGID_7_" gradientUnits="userSpaceOnUse" x1="568.0306" y1="346.4437" x2="577.4648" y2="282.6238">
			<stop  offset="0" style="stop-color:#710914"/>
			<stop  offset="1" style="stop-color:#CD3C30"/>
		</linearGradient>
		<polygon class="st6" points="566.5,309.3 566.5,266.4 559.5,266.4 559.5,315.4 593,315.4 593,309.3 		"/>
		<linearGradient id="SVGID_8_" gradientUnits="userSpaceOnUse" x1="475.6578" y1="332.7885" x2="485.0921" y2="268.9688">
			<stop  offset="0" style="stop-color:#710914"/>
			<stop  offset="1" style="stop-color:#CD3C30"/>
		</linearGradient>
		<path class="st7" d="M502.5,254.9c-3.2,0.7-33,7.2-34.5,7.5c-2,0.4-3.6,2.2-3.6,4v43.2c0,2.5-0.1,3.3-2.1,3.9
			c-0.2,0.1-0.6,0.1-1,0.2c-3.4,0.7-11.4,2.3-13.1,7.6c-0.9,2.9-1.1,7.1,1.2,10.2c1.2,1.7,3.6,3.6,8.1,3.6c0.4,0,0.8,0,1.3-0.1
			c9.6-0.7,11.6-8.8,11.6-11.9c0-0.8,0-3.1,0.1-4.7h0v-25.9c0-3.3,0.1-4,1.3-4.3c2.7-0.6,26.7-5.8,28-6c0.3,0,0.9-0.1,1.1,0
			c0,0,0.3,0.3,0.3,1.6v17.9c0,2.5-0.1,3.3-2.1,3.9c-0.2,0.1-0.6,0.1-1,0.2c-3.4,0.7-11.4,2.3-13.1,7.6c-0.9,2.9-1.1,7.1,1.2,10.2
			c1.3,1.8,4.1,4,9.4,3.6c9.6-0.7,11.6-8.8,11.6-11.9c0-1.4,0.1-6.6,0.1-6.7v-50c0-1.5-0.4-2.6-1.2-3.3
			C505.5,254.7,504.2,254.5,502.5,254.9z M501.3,269.8c0,3.3-0.1,4-1.3,4.3c-2.7,0.6-26.7,5.8-28,6c-0.3,0-0.9,0.1-1.1,0
			c0,0-0.3-0.3-0.3-1.6v-4c0-3.3,0.1-4,1.3-4.3c2.7-0.6,26.7-5.8,28-6c0.2,0,0.5-0.1,0.7-0.1c0.2,0,0.3,0,0.4,0.1
			c0,0,0.3,0.3,0.3,1.6V269.8z"/>
	</g>
</g>
</svg>
